<svg width="138" height="126" viewBox="0 0 138 126" fill="none" xmlns="http://www.w3.org/2000/svg">
<path d="M27.9798 78.7428C36.8052 78.7428 43.9595 71.5884 43.9595 62.763C43.9595 53.9376 36.8052 46.7832 27.9798 46.7832C19.1544 46.7832 12 53.9376 12 62.763C12 71.5884 19.1544 78.7428 27.9798 78.7428Z" fill="black"/>
<path d="M71.4025 75.9231C78.6705 75.9231 84.5623 70.0313 84.5623 62.7633C84.5623 55.4954 78.6705 49.6035 71.4025 49.6035C64.1345 49.6035 58.2427 55.4954 58.2427 62.7633C58.2427 70.0313 64.1345 75.9231 71.4025 75.9231Z" fill="black"/>
<path d="M114.822 73.103C120.532 73.103 125.162 68.4737 125.162 62.7632C125.162 57.0526 120.532 52.4233 114.822 52.4233C109.111 52.4233 104.482 57.0526 104.482 62.7632C104.482 68.4737 109.111 73.103 114.822 73.103Z" fill="black"/>
<path d="M49.693 113.526C56.961 113.526 62.8529 107.634 62.8529 100.366C62.8529 93.0984 56.961 87.2065 49.693 87.2065C42.4251 87.2065 36.5332 93.0984 36.5332 100.366C36.5332 107.634 42.4251 113.526 49.693 113.526Z" fill="black"/>
<path d="M93.1123 110.706C98.8229 110.706 103.452 106.077 103.452 100.366C103.452 94.6557 98.8229 90.0264 93.1123 90.0264C87.4018 90.0264 82.7725 94.6557 82.7725 100.366C82.7725 106.077 87.4018 110.706 93.1123 110.706Z" fill="black"/>
<path d="M49.693 38.3196C56.961 38.3196 62.8529 32.4278 62.8529 25.1598C62.8529 17.8918 56.961 12 49.693 12C42.4251 12 36.5332 17.8918 36.5332 25.1598C36.5332 32.4278 42.4251 38.3196 49.693 38.3196Z" fill="black"/>
<path d="M93.1123 35.5C98.8229 35.5 103.452 30.8707 103.452 25.1602C103.452 19.4496 98.8229 14.8203 93.1123 14.8203C87.4018 14.8203 82.7725 19.4496 82.7725 25.1602C82.7725 30.8707 87.4018 35.5 93.1123 35.5Z" fill="black"/>
</svg>
