<svg width="582" height="155" viewBox="0 0 582 155" fill="none" xmlns="http://www.w3.org/2000/svg">
<path d="M15.9564 93.4583C24.7689 93.4583 31.9129 86.3144 31.9129 77.5019C31.9129 68.6894 24.7689 61.5454 15.9564 61.5454C7.14394 61.5454 0 68.6894 0 77.5019C0 86.3144 7.14394 93.4583 15.9564 93.4583Z" fill="black"/>
<path d="M52.8091 91.0649C60.2997 91.0649 66.372 84.9926 66.372 77.502C66.372 70.0113 60.2997 63.939 52.8091 63.939C45.3184 63.939 39.2461 70.0113 39.2461 77.502C39.2461 84.9926 45.3184 91.0649 52.8091 91.0649Z" fill="black"/>
<path d="M89.6641 88.6711C95.8329 88.6711 100.834 83.6703 100.834 77.5015C100.834 71.3328 95.8329 66.332 89.6641 66.332C83.4954 66.332 78.4946 71.3328 78.4946 77.5015C78.4946 83.6703 83.4954 88.6711 89.6641 88.6711Z" fill="black"/>
<path d="M126.517 86.2782C131.364 86.2782 135.293 82.349 135.293 77.5021C135.293 72.6552 131.364 68.7261 126.517 68.7261C121.67 68.7261 117.741 72.6552 117.741 77.5021C117.741 82.349 121.67 86.2782 126.517 86.2782Z" fill="black"/>
<path d="M163.369 83.8843C166.894 83.8843 169.752 81.0267 169.752 77.5017C169.752 73.9767 166.894 71.1191 163.369 71.1191C159.844 71.1191 156.987 73.9767 156.987 77.5017C156.987 81.0267 159.844 83.8843 163.369 83.8843Z" fill="black"/>
<path d="M34.3823 122.981C41.8729 122.981 47.9453 116.909 47.9453 109.418C47.9453 101.927 41.8729 95.855 34.3823 95.855C26.8917 95.855 20.8193 101.927 20.8193 109.418C20.8193 116.909 26.8917 122.981 34.3823 122.981Z" fill="black"/>
<path d="M71.2384 120.587C77.4071 120.587 82.4079 115.586 82.4079 109.418C82.4079 103.249 77.4071 98.248 71.2384 98.248C65.0696 98.248 60.0688 103.249 60.0688 109.418C60.0688 115.586 65.0696 120.587 71.2384 120.587Z" fill="black"/>
<path d="M108.091 118.194C112.938 118.194 116.867 114.265 116.867 109.418C116.867 104.571 112.938 100.642 108.091 100.642C103.244 100.642 99.3149 104.571 99.3149 109.418C99.3149 114.265 103.244 118.194 108.091 118.194Z" fill="black"/>
<path d="M144.943 115.8C148.468 115.8 151.326 112.943 151.326 109.418C151.326 105.893 148.468 103.035 144.943 103.035C141.418 103.035 138.561 105.893 138.561 109.418C138.561 112.943 141.418 115.8 144.943 115.8Z" fill="black"/>
<path d="M52.8087 152.5C58.9774 152.5 63.9782 147.499 63.9782 141.331C63.9782 135.162 58.9774 130.161 52.8087 130.161C46.6399 130.161 41.6392 135.162 41.6392 141.331C41.6392 147.499 46.6399 152.5 52.8087 152.5Z" fill="black"/>
<path d="M89.6642 150.107C94.5111 150.107 98.4403 146.178 98.4403 141.331C98.4403 136.484 94.5111 132.555 89.6642 132.555C84.8174 132.555 80.8882 136.484 80.8882 141.331C80.8882 146.178 84.8174 150.107 89.6642 150.107Z" fill="black"/>
<path d="M126.517 147.713C130.042 147.713 132.899 144.855 132.899 141.33C132.899 137.805 130.042 134.948 126.517 134.948C122.992 134.948 120.134 137.805 120.134 141.33C120.134 144.855 122.992 147.713 126.517 147.713Z" fill="black"/>
<path d="M34.3823 59.1484C41.8729 59.1484 47.9453 53.0761 47.9453 45.5854C47.9453 38.0948 41.8729 32.0225 34.3823 32.0225C26.8917 32.0225 20.8193 38.0948 20.8193 45.5854C20.8193 53.0761 26.8917 59.1484 34.3823 59.1484Z" fill="black"/>
<path d="M71.2384 56.755C77.4071 56.755 82.4079 51.7543 82.4079 45.5855C82.4079 39.4168 77.4071 34.416 71.2384 34.416C65.0696 34.416 60.0688 39.4168 60.0688 45.5855C60.0688 51.7543 65.0696 56.755 71.2384 56.755Z" fill="black"/>
<path d="M108.091 54.3617C112.938 54.3617 116.867 50.4325 116.867 45.5856C116.867 40.7387 112.938 36.8096 108.091 36.8096C103.244 36.8096 99.3149 40.7387 99.3149 45.5856C99.3149 50.4325 103.244 54.3617 108.091 54.3617Z" fill="black"/>
<path d="M144.943 51.9683C148.468 51.9683 151.326 49.1107 151.326 45.5857C151.326 42.0607 148.468 39.2031 144.943 39.2031C141.418 39.2031 138.561 42.0607 138.561 45.5857C138.561 49.1107 141.418 51.9683 144.943 51.9683Z" fill="black"/>
<path d="M52.8087 24.839C58.9774 24.839 63.9782 19.8383 63.9782 13.6695C63.9782 7.50076 58.9774 2.5 52.8087 2.5C46.6399 2.5 41.6392 7.50076 41.6392 13.6695C41.6392 19.8383 46.6399 24.839 52.8087 24.839Z" fill="black"/>
<path d="M89.6642 22.4456C94.5111 22.4456 98.4403 18.5165 98.4403 13.6696C98.4403 8.82272 94.5111 4.89355 89.6642 4.89355C84.8174 4.89355 80.8882 8.82272 80.8882 13.6696C80.8882 18.5165 84.8174 22.4456 89.6642 22.4456Z" fill="black"/>
<path d="M126.517 20.0518C130.042 20.0518 132.899 17.1942 132.899 13.6692C132.899 10.1442 130.042 7.28662 126.517 7.28662C122.992 7.28662 120.134 10.1442 120.134 13.6692C120.134 17.1942 122.992 20.0518 126.517 20.0518Z" fill="black"/>
<path d="M293.524 56.5C293.1 52.5303 291.312 49.4394 288.161 47.2273C285.04 45.0151 280.979 43.9091 275.979 43.9091C272.464 43.9091 269.449 44.4394 266.934 45.5C264.418 46.5606 262.494 48 261.161 49.8182C259.827 51.6364 259.146 53.7121 259.115 56.0455C259.115 57.9848 259.555 59.6667 260.434 61.0909C261.343 62.5152 262.57 63.7273 264.115 64.7273C265.661 65.697 267.373 66.5151 269.252 67.1818C271.13 67.8485 273.024 68.4091 274.934 68.8636L283.661 71.0455C287.176 71.8636 290.555 72.9697 293.797 74.3636C297.07 75.7576 299.994 77.5152 302.57 79.6364C305.176 81.7576 307.237 84.3182 308.752 87.3182C310.267 90.3182 311.024 93.8333 311.024 97.8636C311.024 103.318 309.63 108.121 306.843 112.273C304.055 116.394 300.024 119.621 294.752 121.955C289.509 124.258 283.161 125.409 275.706 125.409C268.464 125.409 262.176 124.288 256.843 122.045C251.54 119.803 247.388 116.53 244.388 112.227C241.418 107.924 239.812 102.682 239.57 96.5H256.161C256.403 99.7424 257.403 102.439 259.161 104.591C260.918 106.742 263.206 108.348 266.024 109.409C268.873 110.47 272.055 111 275.57 111C279.237 111 282.449 110.455 285.206 109.364C287.994 108.242 290.176 106.697 291.752 104.727C293.327 102.727 294.13 100.394 294.161 97.7273C294.13 95.303 293.418 93.303 292.024 91.7273C290.63 90.1212 288.676 88.7879 286.161 87.7273C283.676 86.6364 280.767 85.6667 277.434 84.8182L266.843 82.0909C259.176 80.1212 253.115 77.1364 248.661 73.1364C244.237 69.1061 242.024 63.7576 242.024 57.0909C242.024 51.6061 243.509 46.803 246.479 42.6818C249.479 38.5606 253.555 35.3636 258.706 33.0909C263.858 30.7879 269.691 29.6364 276.206 29.6364C282.812 29.6364 288.6 30.7879 293.57 33.0909C298.57 35.3636 302.494 38.5303 305.343 42.5909C308.191 46.6212 309.661 51.2576 309.752 56.5H293.524ZM325.331 150.182V54.1818H341.513V65.7273H342.468C343.316 64.0303 344.513 62.2273 346.059 60.3182C347.604 58.3788 349.695 56.7273 352.331 55.3636C354.968 53.9697 358.331 53.2727 362.422 53.2727C367.816 53.2727 372.68 54.6515 377.013 57.4091C381.377 60.1364 384.831 64.1818 387.377 69.5455C389.952 74.8788 391.24 81.4242 391.24 89.1818C391.24 96.8485 389.983 103.364 387.468 108.727C384.952 114.091 381.528 118.182 377.195 121C372.862 123.818 367.952 125.227 362.468 125.227C358.468 125.227 355.149 124.561 352.513 123.227C349.877 121.894 347.755 120.288 346.149 118.409C344.574 116.5 343.346 114.697 342.468 113H341.786V150.182H325.331ZM341.468 89.0909C341.468 93.6061 342.104 97.5606 343.377 100.955C344.68 104.348 346.543 107 348.968 108.909C351.422 110.788 354.392 111.727 357.877 111.727C361.513 111.727 364.559 110.758 367.013 108.818C369.468 106.848 371.316 104.167 372.559 100.773C373.831 97.3485 374.468 93.4545 374.468 89.0909C374.468 84.7576 373.846 80.9091 372.604 77.5455C371.362 74.1818 369.513 71.5455 367.059 69.6364C364.604 67.7273 361.543 66.7727 357.877 66.7727C354.362 66.7727 351.377 67.697 348.922 69.5455C346.468 71.3939 344.604 73.9848 343.331 77.3182C342.089 80.6515 341.468 84.5758 341.468 89.0909ZM421.786 30.9091V124H405.331V30.9091H421.786ZM438.706 124V54.1818H455.161V124H438.706ZM446.979 44.2727C444.373 44.2727 442.13 43.4091 440.252 41.6818C438.373 39.9242 437.434 37.8182 437.434 35.3636C437.434 32.8788 438.373 30.7727 440.252 29.0454C442.13 27.2879 444.373 26.4091 446.979 26.4091C449.615 26.4091 451.858 27.2879 453.706 29.0454C455.585 30.7727 456.524 32.8788 456.524 35.3636C456.524 37.8182 455.585 39.9242 453.706 41.6818C451.858 43.4091 449.615 44.2727 446.979 44.2727ZM506.945 54.1818V66.9091H466.809V54.1818H506.945ZM476.718 37.4545H493.172V103C493.172 105.212 493.505 106.909 494.172 108.091C494.869 109.242 495.778 110.03 496.899 110.455C498.021 110.879 499.263 111.091 500.627 111.091C501.657 111.091 502.596 111.015 503.445 110.864C504.324 110.712 504.99 110.576 505.445 110.455L508.218 123.318C507.339 123.621 506.081 123.955 504.445 124.318C502.839 124.682 500.869 124.894 498.536 124.955C494.415 125.076 490.702 124.455 487.399 123.091C484.096 121.697 481.475 119.545 479.536 116.636C477.627 113.727 476.687 110.091 476.718 105.727V37.4545ZM574.888 72.6364L559.888 74.2727C559.464 72.7576 558.721 71.3333 557.661 70C556.63 68.6667 555.237 67.5909 553.479 66.7727C551.721 65.9545 549.57 65.5455 547.024 65.5455C543.6 65.5455 540.721 66.2879 538.388 67.7727C536.085 69.2576 534.949 71.1818 534.979 73.5455C534.949 75.5758 535.691 77.2273 537.206 78.5C538.752 79.7727 541.297 80.8182 544.843 81.6364L556.752 84.1818C563.358 85.6061 568.267 87.8636 571.479 90.9545C574.721 94.0455 576.358 98.0909 576.388 103.091C576.358 107.485 575.07 111.364 572.524 114.727C570.009 118.061 566.509 120.667 562.024 122.545C557.54 124.424 552.388 125.364 546.57 125.364C538.024 125.364 531.146 123.576 525.934 120C520.721 116.394 517.615 111.379 516.615 104.955L532.661 103.409C533.388 106.561 534.934 108.939 537.297 110.545C539.661 112.152 542.737 112.955 546.524 112.955C550.434 112.955 553.57 112.152 555.934 110.545C558.327 108.939 559.524 106.955 559.524 104.591C559.524 102.591 558.752 100.939 557.206 99.6364C555.691 98.3333 553.327 97.3333 550.115 96.6364L538.206 94.1364C531.509 92.7424 526.555 90.3939 523.343 87.0909C520.13 83.7576 518.54 79.5455 518.57 74.4545C518.54 70.1515 519.706 66.4242 522.07 63.2727C524.464 60.0909 527.782 57.6364 532.024 55.9091C536.297 54.1515 541.221 53.2727 546.797 53.2727C554.979 53.2727 561.418 55.0152 566.115 58.5C570.843 61.9848 573.767 66.697 574.888 72.6364Z" fill="black"/>
</svg>
