<svg width="1703" height="400" viewBox="0 0 1703 400" fill="none" xmlns="http://www.w3.org/2000/svg">
<ellipse cx="40.0001" cy="200" rx="34.56" ry="34.56" fill="black"/>
<circle cx="120" cy="39.9999" r="25.6" fill="black"/>
<ellipse cx="120" cy="200" rx="32" ry="32" fill="black"/>
<ellipse cx="120" cy="360" rx="25.6" ry="25.6" fill="black"/>
<circle cx="79.9999" cy="120" r="32" fill="black"/>
<ellipse cx="79.9999" cy="280" rx="32" ry="32" fill="black"/>
<ellipse cx="200" cy="40.0001" rx="19.2" ry="19.2" fill="black"/>
<ellipse cx="200" cy="200" rx="25.6" ry="25.6" fill="black"/>
<ellipse cx="200" cy="360" rx="19.2" ry="19.2" fill="black"/>
<circle cx="160" cy="120" r="25.6" fill="black"/>
<ellipse cx="160" cy="280" rx="25.6" ry="25.6" fill="black"/>
<circle cx="280" cy="40" r="12.8" fill="black"/>
<circle cx="280" cy="200" r="19.2" fill="black"/>
<circle cx="280" cy="360" r="12.8" fill="black"/>
<ellipse cx="240" cy="120" rx="19.2" ry="19.2" fill="black"/>
<ellipse cx="240" cy="280" rx="19.2" ry="19.2" fill="black"/>
<circle cx="360" cy="200" r="12.8" fill="black"/>
<ellipse cx="320" cy="120" rx="12.8" ry="12.8" fill="black"/>
<circle cx="320" cy="280" r="12.8" fill="black"/>
<path d="M546.705 320.932C527.993 320.932 511.932 316.197 498.523 306.727C485.19 297.182 474.924 283.432 467.728 265.477C460.606 247.447 457.046 225.742 457.046 200.364C457.121 174.985 460.72 153.394 467.841 135.591C475.038 117.712 485.303 104.076 498.637 94.6818C512.046 85.2879 528.068 80.5909 546.705 80.5909C565.341 80.5909 581.364 85.2879 594.773 94.6818C608.182 104.076 618.447 117.712 625.568 135.591C632.765 153.47 636.364 175.061 636.364 200.364C636.364 225.818 632.765 247.561 625.568 265.591C618.447 283.545 608.182 297.258 594.773 306.727C581.44 316.197 565.417 320.932 546.705 320.932ZM546.705 285.364C561.25 285.364 572.728 278.205 581.137 263.886C589.621 249.492 593.864 228.318 593.864 200.364C593.864 181.879 591.932 166.348 588.068 153.773C584.205 141.197 578.75 131.727 571.705 125.364C564.659 118.924 556.326 115.705 546.705 115.705C532.235 115.705 520.796 122.902 512.387 137.295C503.978 151.614 499.735 172.636 499.659 200.364C499.584 218.924 501.44 234.53 505.228 247.182C509.091 259.833 514.546 269.379 521.591 275.818C528.637 282.182 537.008 285.364 546.705 285.364ZM708.21 141.955L743.438 206.386L779.233 141.955H822.756L770.142 229.227L823.665 316.5H780.37L743.438 253.659L706.847 316.5H663.21L716.392 229.227L664.574 141.955H708.21ZM982.87 147.75C981.809 137.826 977.339 130.098 969.46 124.568C961.657 119.038 951.506 116.273 939.006 116.273C930.218 116.273 922.68 117.598 916.392 120.25C910.104 122.902 905.294 126.5 901.96 131.045C898.627 135.591 896.923 140.78 896.847 146.614C896.847 151.462 897.945 155.667 900.142 159.227C902.415 162.788 905.483 165.818 909.347 168.318C913.21 170.742 917.491 172.788 922.188 174.455C926.885 176.121 931.62 177.523 936.392 178.659L958.21 184.114C966.998 186.159 975.445 188.924 983.551 192.409C991.733 195.894 999.044 200.288 1005.48 205.591C1012 210.894 1017.15 217.295 1020.94 224.795C1024.73 232.295 1026.62 241.083 1026.62 251.159C1026.62 264.795 1023.13 276.803 1016.17 287.182C1009.2 297.485 999.12 305.553 985.938 311.386C972.832 317.144 956.96 320.023 938.324 320.023C920.218 320.023 904.498 317.22 891.165 311.614C877.907 306.008 867.529 297.826 860.029 287.068C852.604 276.311 848.589 263.205 847.983 247.75H889.46C890.067 255.856 892.567 262.598 896.96 267.977C901.354 273.356 907.074 277.371 914.12 280.023C921.241 282.674 929.195 284 937.983 284C947.15 284 955.18 282.636 962.074 279.909C969.044 277.106 974.498 273.242 978.438 268.318C982.377 263.318 984.385 257.485 984.46 250.818C984.385 244.758 982.604 239.758 979.12 235.818C975.635 231.803 970.748 228.47 964.46 225.818C958.248 223.091 950.976 220.667 942.642 218.545L916.165 211.727C896.998 206.803 881.847 199.341 870.71 189.341C859.65 179.265 854.12 165.894 854.12 149.227C854.12 135.515 857.832 123.508 865.256 113.205C872.756 102.902 882.945 94.9091 895.824 89.2273C908.703 83.4697 923.286 80.5909 939.574 80.5909C956.089 80.5909 970.559 83.4697 982.983 89.2273C995.483 94.9091 1005.29 102.826 1012.42 112.977C1019.54 123.053 1023.21 134.644 1023.44 147.75H982.87ZM1062.39 381.955V141.955H1102.84V170.818H1105.23C1107.35 166.576 1110.34 162.068 1114.2 157.295C1118.07 152.447 1123.3 148.318 1129.89 144.909C1136.48 141.424 1144.89 139.682 1155.11 139.682C1168.6 139.682 1180.76 143.129 1191.59 150.023C1202.5 156.841 1211.14 166.955 1217.5 180.364C1223.94 193.697 1227.16 210.061 1227.16 229.455C1227.16 248.621 1224.02 264.909 1217.73 278.318C1211.44 291.727 1202.88 301.955 1192.05 309C1181.21 316.045 1168.94 319.568 1155.23 319.568C1145.23 319.568 1136.93 317.902 1130.34 314.568C1123.75 311.235 1118.45 307.22 1114.43 302.523C1110.49 297.75 1107.42 293.242 1105.23 289H1103.52V381.955H1062.39ZM1102.73 229.227C1102.73 240.515 1104.32 250.402 1107.5 258.886C1110.76 267.371 1115.42 274 1121.48 278.773C1127.61 283.47 1135.04 285.818 1143.75 285.818C1152.84 285.818 1160.45 283.394 1166.59 278.545C1172.73 273.621 1177.35 266.917 1180.45 258.432C1183.64 249.871 1185.23 240.136 1185.23 229.227C1185.23 218.394 1183.67 208.773 1180.57 200.364C1177.46 191.955 1172.84 185.364 1166.7 180.591C1160.57 175.818 1152.92 173.432 1143.75 173.432C1134.96 173.432 1127.5 175.742 1121.36 180.364C1115.23 184.985 1110.57 191.462 1107.39 199.795C1104.28 208.129 1102.73 217.939 1102.73 229.227ZM1303.52 83.7727V316.5H1262.39V83.7727H1303.52ZM1345.82 316.5V141.955H1386.96V316.5H1345.82ZM1366.51 117.182C1359.99 117.182 1354.38 115.023 1349.69 110.705C1344.99 106.311 1342.64 101.045 1342.64 94.9091C1342.64 88.697 1344.99 83.4318 1349.69 79.1136C1354.38 74.7197 1359.99 72.5227 1366.51 72.5227C1373.1 72.5227 1378.7 74.7197 1383.32 79.1136C1388.02 83.4318 1390.37 88.697 1390.37 94.9091C1390.37 101.045 1388.02 106.311 1383.32 110.705C1378.7 115.023 1373.1 117.182 1366.51 117.182ZM1516.42 141.955V173.773H1416.08V141.955H1516.42ZM1440.85 100.136H1481.99V264C1481.99 269.53 1482.82 273.773 1484.49 276.727C1486.23 279.606 1488.5 281.576 1491.31 282.636C1494.11 283.697 1497.22 284.227 1500.63 284.227C1503.2 284.227 1505.55 284.038 1507.67 283.659C1509.87 283.28 1511.53 282.939 1512.67 282.636L1519.6 314.795C1517.41 315.553 1514.26 316.386 1510.17 317.295C1506.16 318.205 1501.23 318.735 1495.4 318.886C1485.09 319.189 1475.81 317.636 1467.56 314.227C1459.3 310.742 1452.75 305.364 1447.9 298.091C1443.13 290.818 1440.78 281.727 1440.85 270.818V100.136ZM1686.28 188.091L1648.78 192.182C1647.72 188.394 1645.86 184.833 1643.21 181.5C1640.63 178.167 1637.15 175.477 1632.76 173.432C1628.36 171.386 1622.98 170.364 1616.62 170.364C1608.06 170.364 1600.86 172.22 1595.03 175.932C1589.27 179.644 1586.43 184.455 1586.51 190.364C1586.43 195.439 1588.29 199.568 1592.07 202.75C1595.94 205.932 1602.3 208.545 1611.17 210.591L1640.94 216.955C1657.45 220.515 1669.73 226.159 1677.76 233.886C1685.86 241.614 1689.95 251.727 1690.03 264.227C1689.95 275.212 1686.73 284.909 1680.37 293.318C1674.08 301.652 1665.33 308.167 1654.12 312.864C1642.91 317.561 1630.03 319.909 1615.48 319.909C1594.12 319.909 1576.92 315.439 1563.89 306.5C1550.86 297.485 1543.1 284.947 1540.6 268.886L1580.71 265.023C1582.53 272.902 1586.39 278.848 1592.3 282.864C1598.21 286.879 1605.9 288.886 1615.37 288.886C1625.14 288.886 1632.98 286.879 1638.89 282.864C1644.88 278.848 1647.87 273.886 1647.87 267.977C1647.87 262.977 1645.94 258.848 1642.07 255.591C1638.29 252.333 1632.38 249.833 1624.35 248.091L1594.57 241.841C1577.83 238.356 1565.45 232.485 1557.42 224.227C1549.38 215.894 1545.41 205.364 1545.48 192.636C1545.41 181.879 1548.32 172.561 1554.23 164.682C1560.22 156.727 1568.51 150.591 1579.12 146.273C1589.8 141.879 1602.11 139.682 1616.05 139.682C1636.51 139.682 1652.6 144.038 1664.35 152.75C1676.17 161.462 1683.48 173.242 1686.28 188.091Z" fill="black"/>
</svg>
